# xmcd
# 
# Track frame offsets:
#     150
#     17175
#     36845
#     52137
#     67375
#     88107
#     105780
#     123615
#     142172
#     163402
#     192375
# 
# Disc length: 2842
# 
# Revision: 11
# Processed by: cddbd v1.5.2PL0 Copyright (c) Steve Scherf et al.
# Submitted via: fre:ac v1.0.31
# 
DISCID=ab0b180b
DTITLE=Sarah McLachlan - Afterglow
DYEAR=2003
DGENRE=Pop
TTITLE0=Fallen
TTITLE1=World on Fire
TTITLE2=Stupid
TTITLE3=Drifting
TTITLE4=Train Wreck
TTITLE5=Push
TTITLE6=Answer
TTITLE7=Time
TTITLE8=Perfect Girl
TTITLE9=Dirty Little Secret
TTITLE10=Data Track
EXTD=
EXTT0=
EXTT1=
EXTT2=
EXTT3=
EXTT4=
EXTT5=
EXTT6=
EXTT7=
EXTT8=
EXTT9=
EXTT10=
PLAYORDER=
